<svg width="500" height="500" viewBox="0 0 500 500" fill="none" xmlns="http://www.w3.org/2000/svg">
  <g clip-path="url(#clip0_1_2)">
    <!-- Desk -->
    <rect x="107" y="340" width="300" height="20" rx="2" fill="#1A1A2E"/>
    <rect x="120" y="360" width="274" height="10" rx="2" fill="#16213E"/>
    <!-- Monitor -->
    <rect x="137" y="230" width="180" height="110" rx="5" fill="#1A1A2E"/>
    <rect x="142" y="235" width="170" height="100" rx="2" fill="#16213E"/>
    <!-- Code on screen -->
    <rect x="147" y="240" width="160" height="90" rx="2" fill="#0D0D14"/>
    <rect x="152" y="245" width="100" height="4" rx="1" fill="#00FFFF" fill-opacity="0.8"/>
    <rect x="152" y="253" width="70" height="4" rx="1" fill="#E0E0E0" fill-opacity="0.8"/>
    <rect x="152" y="261" width="120" height="4" rx="1" fill="#00FFFF" fill-opacity="0.8"/>
    <rect x="152" y="269" width="90" height="4" rx="1" fill="#E0E0E0" fill-opacity="0.8"/>
    <rect x="152" y="277" width="110" height="4" rx="1" fill="#00FFFF" fill-opacity="0.8"/>
    <rect x="152" y="285" width="80" height="4" rx="1" fill="#E0E0E0" fill-opacity="0.8"/>
    <rect x="152" y="293" width="130" height="4" rx="1" fill="#00FFFF" fill-opacity="0.8"/>
    <rect x="152" y="301" width="60" height="4" rx="1" fill="#E0E0E0" fill-opacity="0.8"/>
    <rect x="152" y="309" width="100" height="4" rx="1" fill="#00FFFF" fill-opacity="0.8"/>
    <rect x="152" y="317" width="75" height="4" rx="1" fill="#E0E0E0" fill-opacity="0.8"/>
    <!-- Monitor Stand -->
    <rect x="217" y="340" width="20" height="10" rx="2" fill="#16213E"/>
    <rect x="207" y="335" width="40" height="5" rx="2" fill="#1A1A2E"/>
    <!-- Laptop -->
    <rect x="170" y="285" width="120" height="5" rx="2" fill="#16213E"/>
    <rect x="170" y="290" width="120" height="50" rx="5" fill="#1A1A2E"/>
    <rect x="175" y="295" width="110" height="40" rx="2" fill="#16213E"/>
    <!-- Keyboard -->
    <rect x="190" y="320" width="80" height="10" rx="2" fill="#0D0D14"/>
    <rect x="195" y="322" width="5" height="2" rx="1" fill="#00FFFF"/>
    <rect x="205" y="322" width="5" height="2" rx="1" fill="#00FFFF"/>
    <rect x="215" y="322" width="5" height="2" rx="1" fill="#00FFFF"/>
    <rect x="225" y="322" width="5" height="2" rx="1" fill="#00FFFF"/>
    <rect x="235" y="322" width="5" height="2" rx="1" fill="#00FFFF"/>
    <rect x="245" y="322" width="5" height="2" rx="1" fill="#00FFFF"/>
    <rect x="255" y="322" width="5" height="2" rx="1" fill="#00FFFF"/>
    <rect x="195" y="326" width="5" height="2" rx="1" fill="#E0E0E0"/>
    <rect x="205" y="326" width="5" height="2" rx="1" fill="#E0E0E0"/>
    <rect x="215" y="326" width="5" height="2" rx="1" fill="#E0E0E0"/>
    <rect x="225" y="326" width="5" height="2" rx="1" fill="#E0E0E0"/>
    <rect x="235" y="326" width="5" height="2" rx="1" fill="#E0E0E0"/>
    <rect x="245" y="326" width="5" height="2" rx="1" fill="#E0E0E0"/>
    <rect x="255" y="326" width="5" height="2" rx="1" fill="#E0E0E0"/>
    <!-- Coffee Cup -->
    <rect x="300" y="310" width="20" height="30" rx="2" fill="#16213E"/>
    <rect x="303" y="313" width="14" height="24" rx="1" fill="#0F3460"/>
    <rect x="307" y="317" width="6" height="16" rx="1" fill="#00FFFF" fill-opacity="0.6"/>
    <!-- Person -->
    <ellipse cx="230" cy="240" rx="30" ry="30" fill="#16213E"/>
    <rect x="215" y="270" width="30" height="50" rx="10" fill="#00FFFF"/>
    <rect x="200" y="280" width="15" height="30" rx="5" fill="#00FFFF"/>
    <rect x="245" y="280" width="15" height="30" rx="5" fill="#00FFFF"/>
    <rect x="205" y="310" width="10" height="30" rx="5" fill="#16213E"/>
    <rect x="245" y="310" width="10" height="30" rx="5" fill="#16213E"/>
    <!-- Chair -->
    <rect x="210" y="340" width="40" height="10" rx="5" fill="#16213E"/>
    <rect x="220" y="350" width="20" height="30" rx="2" fill="#1A1A2E"/>
    <rect x="215" y="380" width="30" height="5" rx="2" fill="#1A1A2E"/>
  </g>
  <defs>
    <clipPath id="clip0_1_2">
      <rect width="500" height="500" fill="white"/>
    </clipPath>
  </defs>
</svg> 